<svg width="400" height="400" viewBox="0 0 400 400" fill="none" xmlns="http://www.w3.org/2000/svg">
    <g clip-path="url(#clip0_1238_890)">
        <rect width="400" height="400"/>
        <path d="M0.897729 398V208.909H114.278V229.222H23.7955V293.114H105.784V313.426H23.7955V398H0.897729Z" fill="#00626C"/>
        <path d="M139.898 398V208.909H203.79C218.624 208.909 230.75 211.587 240.168 216.942C249.647 222.235 256.664 229.406 261.219 238.455C265.774 247.503 268.051 257.598 268.051 268.739C268.051 279.88 265.774 290.005 261.219 299.115C256.725 308.225 249.77 315.488 240.352 320.905C230.935 326.26 218.87 328.938 204.159 328.938H158.364V308.625H203.42C213.577 308.625 221.732 306.871 227.888 303.362C234.043 299.854 238.506 295.114 241.276 289.143C244.107 283.111 245.523 276.31 245.523 268.739C245.523 261.168 244.107 254.397 241.276 248.426C238.506 242.455 234.012 237.777 227.795 234.392C221.579 230.945 213.33 229.222 203.051 229.222H162.795V398H139.898Z" fill="#00626C"/>
        <path d="M286.898 398V208.909H309.795V377.688H397.693V398H286.898Z" fill="#00626C"/>
        <g filter="url(#filter0_f_1238_890)">
            <rect x="175" y="14" width="50" height="172" fill="#78BDB6"/>
        </g>
        <g filter="url(#filter1_f_1238_890)">
            <rect x="114" y="125" width="50" height="172" transform="rotate(-90 114 125)" fill="#78BDB6"/>
        </g>
    </g>
    <defs>
        <filter id="filter0_f_1238_890" x="155" y="-6" width="90" height="212" filterUnits="userSpaceOnUse" color-interpolation-filters="sRGB">
            <feFlood flood-opacity="0" result="BackgroundImageFix"/>
            <feBlend mode="normal" in="SourceGraphic" in2="BackgroundImageFix" result="shape"/>
            <feGaussianBlur stdDeviation="10" result="effect1_foregroundBlur_1238_890"/>
        </filter>
        <filter id="filter1_f_1238_890" x="94" y="55" width="212" height="90" filterUnits="userSpaceOnUse" color-interpolation-filters="sRGB">
            <feFlood flood-opacity="0" result="BackgroundImageFix"/>
            <feBlend mode="normal" in="SourceGraphic" in2="BackgroundImageFix" result="shape"/>
            <feGaussianBlur stdDeviation="10" result="effect1_foregroundBlur_1238_890"/>
        </filter>
        <clipPath id="clip0_1238_890">
            <rect width="400" height="400" fill="white"/>
        </clipPath>
    </defs>
</svg>
